<svg height="1950" width="720" xmlns="http://www.w3.org/2000/svg">
<rect height="1950" fill="#555" width="720"></rect>
<text fill="#7f7" font-family="Courier New" font-size="12" xml:space="preserve">
<tspan x="10" y="26"></tspan>
<tspan x="10" y="42">&gt; npmdoc-material-ui@0.0.1 test /home/travis/build/npmdoc/node-npmdoc-material-ui</tspan>
<tspan x="10" y="58">&gt; (set -e; export PORT=$(utility2 shServerPortRandom); utility2 test test.js)</tspan>
<tspan x="10" y="74"></tspan>
<tspan x="10" y="90"></tspan>
<tspan x="10" y="106">[MODE_BUILD=npmTest] - 2017-03-26T18:25:12Z - npm-testing /home/travis/build/npmdoc/node-npmdoc-\</tspan>
<tspan x="10" y="122">material-ui</tspan>
<tspan x="10" y="138"></tspan>
<tspan x="10" y="154"></tspan>
<tspan x="10" y="170">covering $ /home/travis/.nvm/versions/node/v6.10.1/bin/node /home/travis/build/npmdoc/node-npmdo\</tspan>
<tspan x="10" y="186">c-material-ui/test.js</tspan>
<tspan x="10" y="202">merging file:///home/travis/build/npmdoc/node-npmdoc-material-ui/tmp/build/test-report.json to t\</tspan>
<tspan x="10" y="218">est-report</tspan>
<tspan x="10" y="234">&gt; server listening on http-port 58687</tspan>
<tspan x="10" y="250">created apidoc file:///home/travis/build/npmdoc/node-npmdoc-material-ui/tmp/build/apidoc.html</tspan>
<tspan x="10" y="266"></tspan>
<tspan x="10" y="282"></tspan>
<tspan x="10" y="298">browserTest - created electron entry-page /home/travis/build/npmdoc/node-npmdoc-material-ui/tmp/\</tspan>
<tspan x="10" y="314">electron.15b0bdd72b50.55498b3d04e23.html</tspan>
<tspan x="10" y="330"></tspan>
<tspan x="10" y="346">Xlib:  extension "RANDR" missing on display ":99.0".</tspan>
<tspan x="10" y="362">[node test-case 1 of 6 passed] - testCase_buildLib_default</tspan>
<tspan x="10" y="378">[node test-case 2 of 6 passed] - testCase_buildReadme_default</tspan>
<tspan x="10" y="394">[node test-case 3 of 6 passed] - testCase_buildTest_default</tspan>
<tspan x="10" y="410"></tspan>
<tspan x="10" y="426">browserTest - created electron entry-page /home/travis/build/npmdoc/node-npmdoc-material-ui/tmp/\</tspan>
<tspan x="10" y="442">electron.15b0bdd733e0.123b5130425d1.html</tspan>
<tspan x="10" y="458"></tspan>
<tspan x="10" y="474">Xlib:  extension "RANDR" missing on display ":99.0".</tspan>
<tspan x="10" y="490">&gt; server listening on http-port 52533</tspan>
<tspan x="10" y="506">merging file:///home/travis/build/npmdoc/node-npmdoc-material-ui/tmp/build/test-report.json to t\</tspan>
<tspan x="10" y="522">est-report</tspan>
<tspan x="10" y="538">Xlib:  extension "RANDR" missing on display ":99.0".</tspan>
<tspan x="10" y="554">[4800:0326/182514:WARNING:audio_manager.cc(314)] Multiple instances of AudioManager detected</tspan>
<tspan x="10" y="570">[4800:0326/182514:WARNING:audio_manager.cc(275)] Multiple instances of AudioManager detected</tspan>
<tspan x="10" y="586">[4845:0326/182514:ERROR:sandbox_linux.cc(343)] InitializeSandbox() called with multiple threads \</tspan>
<tspan x="10" y="602">in process gpu-process. </tspan>
<tspan x="10" y="618">[4800:0326/182514:ERROR:browser_gpu_channel_host_factory.cc(131)] Failed to create channel.</tspan>
<tspan x="10" y="634">merging file:///home/travis/build/npmdoc/node-npmdoc-material-ui/tmp/build/test-report.json to t\</tspan>
<tspan x="10" y="650">est-report</tspan>
<tspan x="10" y="666">Xlib:  extension "RANDR" missing on display ":99.0".</tspan>
<tspan x="10" y="682">[4822:0326/182515:WARNING:audio_manager.cc(314)] Multiple instances of AudioManager detected</tspan>
<tspan x="10" y="698">[4822:0326/182515:WARNING:audio_manager.cc(275)] Multiple instances of AudioManager detected</tspan>
<tspan x="10" y="714">[4875:0326/182515:ERROR:sandbox_linux.cc(343)] InitializeSandbox() called with multiple threads \</tspan>
<tspan x="10" y="730">in process gpu-process. </tspan>
<tspan x="10" y="746"></tspan>
<tspan x="10" y="762">browserTest - opened url file:///home/travis/build/npmdoc/node-npmdoc-material-ui/tmp/build/apid\</tspan>
<tspan x="10" y="778">oc.html</tspan>
<tspan x="10" y="794"></tspan>
<tspan x="10" y="810"></tspan>
<tspan x="10" y="826">browserTest - opened url http://127.0.0.1:58687?modeTest=1</tspan>
<tspan x="10" y="842"></tspan>
<tspan x="10" y="858">[4822:0326/182517:INFO:CONSOLE(203)] "----------|-----------|-----------|-----------|-----------\</tspan>
<tspan x="10" y="874">|</tspan>
<tspan x="10" y="890">File      |   % Stmts |% Branches |   % Funcs |   % Lines |</tspan>
<tspan x="10" y="906">----------|-----------|-----------|-----------|-----------|</tspan>
<tspan x="10" y="922">----------|-----------|-----------|-----------|-----------|</tspan>
<tspan x="10" y="938">All files |       100 |       100 |       100 |       100 |</tspan>
<tspan x="10" y="954">----------|-----------|-----------|-----------|-----------|</tspan>
<tspan x="10" y="970">", source: file:///home/travis/build/npmdoc/node-npmdoc-material-ui/tmp/electron.15b0bdd733e0.12\</tspan>
<tspan x="10" y="986">3b5130425d1.html (203)</tspan>
<tspan x="10" y="1002">[4822:0326/182517:INFO:CONSOLE(203)] "created coverage file:///tmp/build/coverage.html/index.htm\</tspan>
<tspan x="10" y="1018">l", source: file:///home/travis/build/npmdoc/node-npmdoc-material-ui/tmp/electron.15b0bdd733e0.1\</tspan>
<tspan x="10" y="1034">23b5130425d1.html (203)</tspan>
<tspan x="10" y="1050">[node test-case 4 of 6 passed] - testCase_buildApp_default</tspan>
<tspan x="10" y="1066"></tspan>
<tspan x="10" y="1082">browserTest - created screen-capture file:///home/travis/build/npmdoc/node-npmdoc-material-ui/tm\</tspan>
<tspan x="10" y="1098">p/build/screen-capture.npmTest.browser._2Fhome_2Ftravis_2Fbuild_2Fnpmdoc_2Fnode-npmdoc-material-\</tspan>
<tspan x="10" y="1114">ui_2Ftmp_2Fbuild_2Fapidoc.html.png</tspan>
<tspan x="10" y="1130"></tspan>
<tspan x="10" y="1146"></tspan>
<tspan x="10" y="1162">browserTest - exit-code 0 - file:///home/travis/build/npmdoc/node-npmdoc-material-ui/tmp/build/a\</tspan>
<tspan x="10" y="1178">pidoc.html</tspan>
<tspan x="10" y="1194"></tspan>
<tspan x="10" y="1210">[node test-case 5 of 6 passed] - testCase_buildApidoc_default</tspan>
<tspan x="10" y="1226"></tspan>
<tspan x="10" y="1242">browserTest - created screen-capture file:///home/travis/build/npmdoc/node-npmdoc-material-ui/tm\</tspan>
<tspan x="10" y="1258">p/build/screen-capture.npmTest.browser..png</tspan>
<tspan x="10" y="1274"></tspan>
<tspan x="10" y="1290"></tspan>
<tspan x="10" y="1306">browserTest - exit-code 0 - http://127.0.0.1:58687?modeTest=1</tspan>
<tspan x="10" y="1322"></tspan>
<tspan x="10" y="1338"></tspan>
<tspan x="10" y="1354">browserTest - merged coverage from /home/travis/build/npmdoc/node-npmdoc-material-ui/tmp/coverag\</tspan>
<tspan x="10" y="1370">e.npmTest.browser.%2F.json</tspan>
<tspan x="10" y="1386"></tspan>
<tspan x="10" y="1402"></tspan>
<tspan x="10" y="1418">browserTest - merging test-report from /home/travis/build/npmdoc/node-npmdoc-material-ui/tmp/tes\</tspan>
<tspan x="10" y="1434">t-report.npmTest.browser.%2F.json</tspan>
<tspan x="10" y="1450"></tspan>
<tspan x="10" y="1466">[node test-case 6 of 6 passed] - testCase_webpage_default</tspan>
<tspan x="10" y="1482">--------------------------------|-----------|-----------|-----------|-----------|</tspan>
<tspan x="10" y="1498">File                            |   % Stmts |% Branches |   % Funcs |   % Lines |</tspan>
<tspan x="10" y="1514">--------------------------------|-----------|-----------|-----------|-----------|</tspan>
<tspan x="10" y="1530">   node-npmdoc-material-ui/     |       100 |       100 |       100 |       100 |</tspan>
<tspan x="10" y="1546">      example.js                |       100 |       100 |       100 |       100 |</tspan>
<tspan x="10" y="1562">      lib.npmdoc_material_ui.js |       100 |       100 |       100 |       100 |</tspan>
<tspan x="10" y="1578">      test.js                   |       100 |       100 |       100 |       100 |</tspan>
<tspan x="10" y="1594">--------------------------------|-----------|-----------|-----------|-----------|</tspan>
<tspan x="10" y="1610">All files                       |       100 |       100 |       100 |       100 |</tspan>
<tspan x="10" y="1626">--------------------------------|-----------|-----------|-----------|-----------|</tspan>
<tspan x="10" y="1642"></tspan>
<tspan x="10" y="1658">created coverage file:///home/travis/build/npmdoc/node-npmdoc-material-ui/tmp/build/coverage.htm\</tspan>
<tspan x="10" y="1674">l/index.html</tspan>
<tspan x="10" y="1690">merging file:///home/travis/build/npmdoc/node-npmdoc-material-ui/tmp/build/test-report.json to t\</tspan>
<tspan x="10" y="1706">est-report</tspan>
<tspan x="10" y="1722"></tspan>
<tspan x="10" y="1738">-------------------------------------------------------</tspan>
<tspan x="10" y="1754">| test-report - buildNpmdoc - node - linux v6.10.1 - 2017-03-26T18:24:42.076Z</tspan>
<tspan x="10" y="1770">|   37001 ms            0 failed        6 passed      |</tspan>
<tspan x="10" y="1786">-------------------------------------------------------</tspan>
<tspan x="10" y="1802"></tspan>
<tspan x="10" y="1818">created test-report file:///home/travis/build/npmdoc/node-npmdoc-material-ui/tmp/build/test-repo\</tspan>
<tspan x="10" y="1834">rt.html</tspan>
<tspan x="10" y="1850"></tspan>
<tspan x="10" y="1866"></tspan>
<tspan x="10" y="1882">npmTest - 0 failed tests</tspan>
<tspan x="10" y="1898"></tspan>
<tspan x="10" y="1914"></tspan>
<tspan x="10" y="1930">[MODE_BUILD=npmTest] - 2017-03-26T18:25:22Z - EXIT_CODE - 0</tspan>
</text>
</svg>
